<?xml version="1.0" standalone="no"?>
<!DOCTYPE svg PUBLIC "-//W3C//DTD SVG 20010904//EN"
 "http://www.w3.org/TR/2001/REC-SVG-20010904/DTD/svg10.dtd">
<svg version="1.0" xmlns="http://www.w3.org/2000/svg"
 width="512.000000pt" height="512.000000pt" viewBox="0 0 512.000000 512.000000"
 preserveAspectRatio="xMidYMid meet">
<metadata>
Created by potrace 1.16, written by Peter Selinger 2001-2019
</metadata>
<g transform="translate(0.000000,512.000000) scale(0.100000,-0.100000)"
fill="#000000" stroke="none">
<path d="M610 5113 c-40 -14 -94 -61 -118 -102 l-27 -46 -3 -1528 c-1 -1006 1
-1542 8 -1566 15 -58 63 -116 117 -142 46 -23 56 -24 281 -24 l234 0 25 29
c19 23 24 36 19 60 -12 62 -26 66 -253 66 -212 0 -252 7 -267 45 -3 9 -6 687
-6 1505 0 1092 3 1496 11 1514 7 14 25 30 42 36 42 14 3732 14 3774 0 17 -6
35 -22 42 -36 8 -18 11 -422 11 -1514 0 -818 -3 -1496 -6 -1505 -17 -43 -41
-45 -493 -45 l-430 0 5 28 c3 15 -1 48 -9 74 l-15 47 375 3 375 3 24 28 24 28
0 1343 0 1343 -21 27 -20 26 -1749 0 -1749 0 -20 -26 c-20 -26 -21 -38 -21
-333 0 -332 1 -341 56 -361 29 -11 81 5 94 30 6 11 10 127 10 274 l0 256 1630
0 1630 0 0 -726 c0 -577 -3 -724 -12 -718 -7 5 -155 122 -328 260 -174 139
-327 255 -342 259 -14 4 -37 1 -50 -5 -12 -7 -107 -95 -209 -197 l-186 -185
-391 271 c-320 222 -397 271 -424 271 -28 0 -126 -73 -673 -499 l-640 -498 -5
483 c-6 545 -2 524 -79 524 -31 0 -44 -6 -60 -26 -21 -27 -21 -32 -21 -910 l0
-883 24 -28 24 -28 377 -3 c352 -3 376 -4 370 -20 -4 -9 -10 -43 -13 -74 l-4
-58 -84 0 c-71 0 -87 -3 -104 -20 -26 -26 -26 -80 -1 -111 18 -22 28 -24 129
-27 l109 -4 -21 -55 c-20 -53 -24 -56 -101 -95 -147 -74 -155 -89 -155 -308 0
-219 8 -234 155 -308 79 -40 80 -41 103 -101 l24 -61 -26 -78 c-29 -87 -33
-147 -12 -197 18 -42 163 -194 224 -235 59 -39 128 -40 232 -5 l74 25 61 -26
c60 -25 62 -27 103 -109 28 -56 53 -92 78 -112 37 -28 38 -28 212 -31 115 -2
184 1 202 8 42 17 80 63 125 147 38 72 43 77 98 100 l59 24 76 -25 c92 -31
159 -33 210 -7 20 10 83 66 138 123 92 95 103 110 114 159 11 50 10 60 -18
146 l-30 93 23 57 c22 56 26 60 101 100 90 47 138 94 153 150 14 49 14 277 0
326 -15 55 -62 100 -153 150 -73 39 -80 45 -97 92 -11 28 -19 51 -19 52 0 1
215 4 478 5 l477 3 48 24 c54 26 102 84 117 142 7 24 9 560 8 1566 l-3 1528
-27 46 c-15 25 -46 59 -70 75 l-43 29 -1945 2 c-1070 1 -1952 -1 -1960 -4z
m2227 -1817 c490 -339 577 -396 608 -396 58 0 92 55 69 114 -3 9 -72 62 -153
117 -80 56 -148 104 -151 106 -8 7 285 293 297 289 6 -3 163 -126 347 -273
l336 -268 0 -213 0 -213 -127 87 c-71 49 -168 117 -218 151 -98 68 -126 75
-169 42 -34 -27 -37 -86 -5 -115 11 -10 132 -96 267 -190 l247 -171 3 -97 3
-96 -399 0 c-393 0 -399 0 -418 21 -57 63 -145 74 -266 33 l-76 -25 -59 24
c-55 23 -60 28 -98 100 -79 148 -96 157 -315 157 -218 0 -234 -8 -308 -155
-40 -79 -41 -80 -100 -102 l-59 -23 -73 25 c-117 40 -187 33 -260 -25 l-38
-30 -396 0 -396 0 0 253 1 252 657 512 c361 281 662 510 667 508 6 -1 267
-181 582 -399z m-152 -980 c11 -8 40 -54 64 -104 l44 -90 109 -46 c59 -25 114
-46 121 -46 7 0 53 14 102 30 49 17 96 30 105 30 9 0 55 -40 103 -89 l87 -88
-35 -104 -36 -104 47 -117 46 -117 102 -53 101 -53 0 -125 0 -125 -88 -46
c-48 -25 -96 -54 -106 -65 -11 -10 -38 -66 -60 -124 l-42 -105 36 -104 35
-104 -87 -88 c-48 -49 -94 -89 -103 -89 -9 0 -56 13 -105 30 -49 16 -95 30
-103 30 -7 0 -39 -12 -70 -26 -31 -15 -75 -33 -96 -40 -56 -20 -63 -28 -112
-126 -24 -48 -53 -92 -63 -98 -22 -11 -206 -13 -235 -1 -10 4 -41 52 -70 106
-50 97 -52 100 -101 118 -27 9 -76 29 -108 44 l-58 27 -97 -32 c-54 -18 -105
-32 -113 -32 -8 0 -55 40 -104 90 l-89 90 33 101 c18 55 31 111 28 122 -3 12
-23 65 -44 117 l-39 95 -102 53 -102 53 0 129 0 129 102 53 102 53 39 95 c21
52 41 105 44 117 3 11 -10 67 -28 122 l-33 101 89 90 c49 50 96 90 104 90 8 0
59 -14 113 -32 l97 -32 58 27 c32 15 81 35 108 44 49 18 51 21 101 118 29 54
60 102 70 106 35 14 218 10 239 -5z"/>
<path d="M2485 1779 c-255 -31 -464 -263 -465 -513 0 -52 -2 -57 -17 -51 -66
28 -118 8 -129 -50 -9 -52 10 -72 134 -142 114 -66 143 -73 180 -48 30 22 142
224 142 258 0 61 -77 97 -129 60 l-24 -16 7 34 c12 63 62 154 111 202 112 109
270 141 411 82 49 -20 76 -19 108 6 32 25 37 87 9 111 -61 53 -211 83 -338 67z"/>
<path d="M2937 1508 c-20 -15 -135 -211 -143 -244 -6 -24 10 -62 35 -81 24
-18 65 -15 93 7 l25 19 -8 -45 c-5 -25 -23 -72 -40 -105 -92 -172 -305 -249
-484 -175 -52 22 -82 20 -110 -9 -33 -32 -33 -78 -1 -110 39 -39 146 -67 256
-67 264 0 481 173 535 427 8 39 15 86 15 106 l0 36 40 -10 c55 -15 94 12 98
69 4 50 -11 64 -143 138 -101 57 -137 66 -168 44z"/>
<path d="M2892 4481 c-115 -43 -218 -154 -242 -264 -19 -83 -9 -202 21 -267
55 -116 159 -195 288 -221 159 -31 331 53 409 198 105 198 28 440 -173 538
-79 39 -220 46 -303 16z m245 -171 c133 -76 158 -242 54 -353 -71 -78 -190
-95 -278 -41 -73 45 -107 100 -111 183 -3 55 0 76 18 111 62 122 202 166 317
100z"/>
</g>
</svg>
